<svg width="24" height="24" viewBox="0 0 24 24" fill="none" xmlns="http://www.w3.org/2000/svg">
<path d="M8.12001 9.29L12 13.17L15.88 9.29C15.9726 9.19742 16.0825 9.12398 16.2035 9.07387C16.3244 9.02377 16.4541 8.99798 16.585 8.99798C16.7159 8.99798 16.8456 9.02377 16.9665 9.07387C17.0875 9.12398 17.1974 9.19742 17.29 9.29C17.3826 9.38258 17.456 9.49249 17.5061 9.61346C17.5562 9.73442 17.582 9.86407 17.582 9.995C17.582 10.1259 17.5562 10.2556 17.5061 10.3765C17.456 10.4975 17.3826 10.6074 17.29 10.7L12.7 15.29C12.6075 15.3827 12.4976 15.4563 12.3766 15.5064C12.2557 15.5566 12.126 15.5824 11.995 15.5824C11.864 15.5824 11.7344 15.5566 11.6134 15.5064C11.4924 15.4563 11.3825 15.3827 11.29 15.29L6.70001 10.7C6.6073 10.6075 6.53375 10.4976 6.48357 10.3766C6.43339 10.2556 6.40756 10.126 6.40756 9.995C6.40756 9.86403 6.43339 9.73435 6.48357 9.61337C6.53375 9.4924 6.6073 9.38251 6.70001 9.29C7.09001 8.91 7.73001 8.9 8.12001 9.29V9.29Z" fill="black"/>
</svg>
