<svg width="24" height="24" viewBox="0 0 24 24" fill="none" xmlns="http://www.w3.org/2000/svg">
<path d="M8.12 14.71L12 10.83L15.88 14.71C15.9726 14.8026 16.0825 14.876 16.2035 14.9261C16.3244 14.9762 16.4541 15.002 16.585 15.002C16.7159 15.002 16.8456 14.9762 16.9665 14.9261C17.0875 14.876 17.1974 14.8026 17.29 14.71C17.3826 14.6174 17.456 14.5075 17.5061 14.3865C17.5562 14.2656 17.582 14.1359 17.582 14.005C17.582 13.8741 17.5562 13.7444 17.5061 13.6235C17.456 13.5025 17.3826 13.3926 17.29 13.3L12.7 8.71C12.6075 8.6173 12.4976 8.54375 12.3766 8.49357C12.2556 8.44339 12.126 8.41756 11.995 8.41756C11.864 8.41756 11.7343 8.44339 11.6134 8.49357C11.4924 8.54375 11.3825 8.6173 11.29 8.71L6.7 13.3C6.60729 13.3925 6.53375 13.5024 6.48357 13.6234C6.43338 13.7444 6.40755 13.874 6.40755 14.005C6.40755 14.136 6.43338 14.2657 6.48357 14.3866C6.53375 14.5076 6.60729 14.6175 6.7 14.71C7.09 15.09 7.73 15.1 8.12 14.71V14.71Z" fill="black"/>
</svg>
