<svg width="24" height="24" viewBox="0 0 24 24" fill="none" xmlns="http://www.w3.org/2000/svg">
<path d="M10.8 2.39999C9.52695 2.39999 8.30606 2.90571 7.40588 3.80588C6.50571 4.70606 5.99999 5.92695 5.99999 7.19999C5.99999 8.47303 6.50571 9.69393 7.40588 10.5941C8.30606 11.4943 9.52695 12 10.8 12C12.073 12 13.2939 11.4943 14.1941 10.5941C15.0943 9.69393 15.6 8.47303 15.6 7.19999C15.6 5.92695 15.0943 4.70606 14.1941 3.80588C13.2939 2.90571 12.073 2.39999 10.8 2.39999ZM4.81079 13.2C4.49476 13.1987 4.18158 13.2599 3.88922 13.3799C3.59687 13.4999 3.33108 13.6765 3.1071 13.8995C2.88313 14.1224 2.70538 14.3874 2.58403 14.6792C2.46269 14.9711 2.40015 15.284 2.39999 15.6C2.39999 17.6292 3.39959 19.1592 4.96199 20.1564C6.50039 21.1368 8.57399 21.6 10.8 21.6C11.292 21.6 11.7792 21.5772 12.252 21.5316C11.3099 20.3609 10.7974 18.9027 10.8 17.4C10.8 15.804 11.3664 14.34 12.3084 13.2H4.81199H4.81079ZM16.65 15C16.65 14.8011 16.729 14.6103 16.8697 14.4697C17.0103 14.329 17.2011 14.25 17.4 14.25C17.5989 14.25 17.7897 14.329 17.9303 14.4697C18.071 14.6103 18.15 14.8011 18.15 15C18.15 15.1989 18.071 15.3897 17.9303 15.5303C17.7897 15.671 17.5989 15.75 17.4 15.75C17.2011 15.75 17.0103 15.671 16.8697 15.5303C16.729 15.3897 16.65 15.1989 16.65 15ZM18 19.8C18 19.9591 17.9368 20.1117 17.8243 20.2243C17.7117 20.3368 17.5591 20.4 17.4 20.4C17.2409 20.4 17.0883 20.3368 16.9757 20.2243C16.8632 20.1117 16.8 19.9591 16.8 19.8V17.4C16.8 17.2409 16.8632 17.0883 16.9757 16.9757C17.0883 16.8632 17.2409 16.8 17.4 16.8C17.5591 16.8 17.7117 16.8632 17.8243 16.9757C17.9368 17.0883 18 17.2409 18 17.4V19.8ZM12 17.4C12 15.9678 12.5689 14.5943 13.5816 13.5816C14.5943 12.5689 15.9678 12 17.4 12C18.8322 12 20.2057 12.5689 21.2184 13.5816C22.2311 14.5943 22.8 15.9678 22.8 17.4C22.8 18.8322 22.2311 20.2057 21.2184 21.2184C20.2057 22.2311 18.8322 22.8 17.4 22.8C15.9678 22.8 14.5943 22.2311 13.5816 21.2184C12.5689 20.2057 12 18.8322 12 17.4ZM13.2 17.4C13.2 17.9515 13.3086 18.4977 13.5197 19.0073C13.7308 19.5168 14.0401 19.9798 14.4301 20.3698C14.8202 20.7598 15.2832 21.0692 15.7927 21.2803C16.3023 21.4914 16.8484 21.6 17.4 21.6C17.9515 21.6 18.4977 21.4914 19.0073 21.2803C19.5168 21.0692 19.9798 20.7598 20.3698 20.3698C20.7598 19.9798 21.0692 19.5168 21.2803 19.0073C21.4914 18.4977 21.6 17.9515 21.6 17.4C21.6 16.2861 21.1575 15.2178 20.3698 14.4301C19.5822 13.6425 18.5139 13.2 17.4 13.2C16.2861 13.2 15.2178 13.6425 14.4301 14.4301C13.6425 15.2178 13.2 16.2861 13.2 17.4Z" fill="black"/>
</svg>
