<svg width="24" height="24" viewBox="0 0 24 24" fill="none" xmlns="http://www.w3.org/2000/svg">
<path fill-rule="evenodd" clip-rule="evenodd" d="M17.5395 3.68822C16.35 4.30706 15.6746 4.40427 9.54722 4.83968C2.65583 5.32892 2.3843 5.39185 2.37386 6.50288C2.36556 7.38308 3.08803 7.62436 5.25573 7.46556L7.32382 7.31426L5.18156 7.97167C1.11528 9.21981 1.16482 9.19222 1.16482 10.2288C1.16482 11.4812 1.69476 11.5225 4.92368 10.5228C6.34374 10.0831 7.45209 9.77706 7.38621 9.84267C7.32061 9.90827 5.89386 10.7759 4.21593 11.7707C1.08261 13.6278 0.543564 14.2616 1.31103 15.1863C1.81152 15.7896 2.14276 15.6814 5.04767 13.9665C6.54457 13.0828 7.82993 12.3598 7.90411 12.3598C7.97828 12.3598 7.62615 12.9321 7.12138 13.6318C6.33785 14.7182 5.31545 17.4517 5.31545 18.4599C5.31545 18.6292 5.56449 18.901 5.86896 19.064C6.75103 19.5361 7.61651 18.7778 8.1585 17.0583C8.70103 15.337 10.5728 12.8306 11.7832 12.2048C12.4859 11.8414 12.8083 11.8181 13.6505 12.0706C14.2104 12.2383 14.8536 12.6399 15.0799 12.9629C15.5434 13.6248 15.6026 15.1836 15.2245 16.7782C14.8729 18.2607 15.2898 19.4416 16.3149 19.866C16.7549 20.0484 17.1814 20.1311 17.2626 20.05C17.3437 19.9689 17.5148 19.079 17.6431 18.0727C17.9454 15.6956 18.2935 14.7005 19.4742 12.8394C20.2328 11.6438 20.6923 11.2159 21.5827 10.8758C22.2091 10.6366 22.7213 10.3919 22.7213 10.3319C22.7213 10.0748 19.1025 2.9885 18.9769 3.00001C18.9009 3.00671 18.2539 3.31654 17.5395 3.68822Z" fill="black"/>
<path d="M8.52884 19.1883C8.52884 17.6354 9.78769 16.3766 11.3406 16.3766V16.3766C12.8934 16.3766 14.1523 17.6354 14.1523 19.1883V19.1883C14.1523 20.7412 12.8934 22 11.3406 22V22C9.78769 22 8.52884 20.7412 8.52884 19.1883V19.1883Z" fill="black"/>
</svg>
