<svg width="24" height="24" viewBox="0 0 24 24" fill="none" xmlns="http://www.w3.org/2000/svg">
<path d="M22.2375 14.2406C22.2375 14.2313 22.2281 14.2313 22.2281 14.2219C22.1677 14.0515 22.0956 13.8855 22.0125 13.725L18.1219 4.85626C18.0829 4.77216 18.0289 4.6959 17.9625 4.63126C17.6838 4.35205 17.3529 4.13053 16.9885 3.97939C16.6241 3.82825 16.2335 3.75046 15.8391 3.75046C15.4446 3.75046 15.054 3.82825 14.6896 3.97939C14.3253 4.13053 13.9943 4.35205 13.7156 4.63126C13.6469 4.70029 13.5925 4.7822 13.5555 4.87228C13.5185 4.96237 13.4997 5.05887 13.5 5.15626V7.87501H10.5V5.15626C10.5003 5.05887 10.4815 4.96237 10.4445 4.87228C10.4075 4.7822 10.3531 4.70029 10.2844 4.63126C10.0057 4.35205 9.67473 4.13053 9.31036 3.97939C8.946 3.82825 8.5554 3.75046 8.16093 3.75046C7.76646 3.75046 7.37586 3.82825 7.0115 3.97939C6.64713 4.13053 6.31615 4.35205 6.03749 4.63126C5.97108 4.6959 5.91707 4.77216 5.87812 4.85626L1.98749 13.7156C1.90438 13.8761 1.83233 14.0422 1.77187 14.2125C1.77187 14.2219 1.76249 14.2219 1.76249 14.2313C1.54152 14.8496 1.45854 15.5087 1.51937 16.1625C1.58019 16.8163 1.78336 17.4489 2.1146 18.0158C2.44584 18.5827 2.89713 19.0703 3.43681 19.4443C3.97649 19.8183 4.59148 20.0697 5.23862 20.1808C5.88576 20.2919 6.54937 20.26 7.18289 20.0874C7.81641 19.9148 8.40448 19.6057 8.90584 19.1817C9.4072 18.7577 9.80969 18.2291 10.0851 17.633C10.3605 17.037 10.5021 16.3879 10.5 15.7313V9.37501H13.5V15.7313C13.4965 16.3882 13.637 17.038 13.9115 17.6349C14.1859 18.2318 14.5878 18.7614 15.0888 19.1864C15.5898 19.6114 16.1778 19.9216 16.8114 20.0951C17.4451 20.2687 18.1091 20.3013 18.7567 20.1908C19.4043 20.0803 20.0199 19.8294 20.5602 19.4556C21.1005 19.0818 21.5524 18.5942 21.8841 18.0271C22.2159 17.46 22.4194 16.8272 22.4805 16.173C22.5415 15.5189 22.4586 14.8593 22.2375 14.2406ZM8.82187 16.7719C8.54297 17.5081 7.98587 18.1051 7.27073 18.4343C6.55558 18.7634 5.73972 18.7983 4.99911 18.5313C4.25851 18.2644 3.65252 17.717 3.31186 17.0073C2.97119 16.2975 2.92316 15.4823 3.17812 14.7375L3.34687 14.3531C3.65916 13.7614 4.16029 13.2911 4.77059 13.0169C5.38089 12.7427 6.06534 12.6804 6.71511 12.8399C7.36489 12.9994 7.94271 13.3715 8.35672 13.8971C8.77072 14.4227 8.99714 15.0716 8.99999 15.7406C9.0013 16.0921 8.94102 16.4412 8.82187 16.7719V16.7719ZM19.0219 18.5719C18.5687 18.7361 18.0826 18.7886 17.6048 18.7251C17.127 18.6616 16.6715 18.4839 16.2769 18.2071C15.8823 17.9302 15.5603 17.5624 15.338 17.1347C15.1157 16.707 14.9998 16.232 15 15.75C15.0028 15.0809 15.2293 14.432 15.6433 13.9064C16.0573 13.3809 16.6351 13.0087 17.2849 12.8493C17.9347 12.6898 18.6191 12.7521 19.2294 13.0263C19.8397 13.3005 20.3408 13.7708 20.6531 14.3625L20.8219 14.7469C21.0874 15.4929 21.0472 16.3137 20.71 17.0303C20.3728 17.7468 19.766 18.301 19.0219 18.5719V18.5719Z" fill="black"/>
</svg>
