<svg width="14" height="20" viewBox="0 0 14 20" fill="none" xmlns="http://www.w3.org/2000/svg">
<path d="M4.87902 12.6215L2.27652 10.019C2.13628 9.87878 1.94609 9.8 1.74777 9.8C1.54945 9.8 1.35925 9.87878 1.21902 10.019C1.07878 10.1592 1 10.3494 1 10.5478C1 10.646 1.01934 10.7432 1.05692 10.8339C1.0945 10.9246 1.14958 11.0071 1.21902 11.0765L4.35402 14.2115C4.64652 14.504 5.11902 14.504 5.41152 14.2115L13.3465 6.27652C13.4867 6.13628 13.5655 5.94609 13.5655 5.74777C13.5655 5.54945 13.4867 5.35925 13.3465 5.21902C13.2063 5.07878 13.0161 5 12.8178 5C12.6194 5 12.4292 5.07878 12.289 5.21902L4.87902 12.6215Z" fill="black"/>
</svg>
